<svg width="25" height="24" viewBox="0 0 25 24" fill="none" xmlns="http://www.w3.org/2000/svg">
<path d="M11.4269 2.633C11.7469 1.789 12.9579 1.789 13.2789 2.633L15.3489 8.367C15.4211 8.55379 15.5483 8.71428 15.7136 8.82729C15.8789 8.94031 16.0747 9.00053 16.2749 9H21.3619C22.3019 9 22.7119 10.17 21.9729 10.743L18.3529 14C18.1908 14.1247 18.0723 14.2975 18.0144 14.4937C17.9566 14.6898 17.9623 14.8993 18.0309 15.092L19.3529 20.695C19.6749 21.595 18.6329 22.368 17.8449 21.814L12.9279 18.694C12.7595 18.5757 12.5587 18.5122 12.3529 18.5122C12.1471 18.5122 11.9463 18.5757 11.7779 18.694L6.86092 21.814C6.07392 22.368 5.03092 21.594 5.35292 20.695L6.67492 15.092C6.7435 14.8993 6.74928 14.6898 6.69143 14.4937C6.63358 14.2975 6.51508 14.1247 6.35292 14L2.73292 10.743C1.99292 10.17 2.40492 9 3.34292 9H8.42992C8.63021 9.00067 8.82599 8.9405 8.99134 8.82747C9.15669 8.71444 9.28383 8.55387 9.35592 8.367L11.4259 2.633H11.4269Z" fill="#FFD057" stroke="#FFD057" stroke-linecap="round" stroke-linejoin="round"/>
</svg>
