<svg width="938" height="484" viewBox="0 0 938 484" fill="none" xmlns="http://www.w3.org/2000/svg">
<path d="M-7 0H914C927.255 0 938 10.7452 938 24V460C938 473.255 927.255 484 914 484H-7V0Z" fill="#F7EBDA"/>
<g style="mix-blend-mode:overlay">
<path fill-rule="evenodd" clip-rule="evenodd" d="M491.462 32.7805C490.855 40.3022 487.561 47.2979 482.306 52.2288C477.051 57.1595 470.264 59.6214 463.438 59.0729C456.613 58.5243 450.308 55.0102 445.911 49.3037C441.514 43.5971 439.385 36.1655 439.992 28.6438C439.992 28.6438 454.197 36.0297 465.727 30.7121C477.257 25.3946 491.462 32.7805 491.462 32.7805ZM498.515 52.7558C496.891 55.658 495.001 58.2598 492.932 60.4165C491.663 61.4547 490.588 62.4374 489.591 63.3489C484.364 68.1268 481.28 70.9467 463.561 69.5227C445.074 68.0369 442.925 65.3462 437.692 58.7947C436.953 57.8691 436.152 56.8665 435.235 55.7794C427.826 46.9969 428.074 38.7739 428.906 28.4576L436.259 29.0486C435.073 43.7432 440.825 51.3106 440.825 51.3106C440.825 51.3106 445.737 61.1349 464.119 62.6122C482.501 64.0896 487.812 55.0869 487.812 55.0869C487.812 55.0869 494.969 45.0771 495.946 32.9756L503.653 33.5951C504.628 33.3778 505.636 33.2765 506.652 33.2978C509.215 33.3515 511.698 34.1814 513.735 35.6642C515.771 37.1471 517.251 39.204 517.955 41.5294C518.659 43.8548 518.55 46.3248 517.643 48.5727C516.737 50.8206 515.081 52.7266 512.923 54.0076C510.765 55.2886 508.218 55.8765 505.662 55.6839C503.106 55.4914 500.676 54.5284 498.733 52.9383C498.659 52.8782 498.587 52.8174 498.515 52.7558ZM503.394 39.8963C504.341 39.3363 505.446 39.0486 506.574 39.0722C507.817 39.0982 509.021 39.5006 510.008 40.2196C510.995 40.9386 511.713 41.9359 512.054 43.0634C512.396 44.191 512.343 45.3886 511.903 46.4785C511.464 47.5685 510.661 48.4926 509.615 49.1137C508.568 49.735 507.333 50.0199 506.094 49.9266C504.854 49.8332 503.676 49.3663 502.734 48.5953C502.128 48.0993 501.64 47.4946 501.297 46.8218C502.158 44.596 502.866 42.2717 503.394 39.8963ZM429.545 72.0088L496.659 77.4028C497.923 77.5043 498.853 78.7477 498.738 80.1798C498.622 81.612 497.504 82.6907 496.24 82.5891L429.126 77.1951C427.863 77.0935 426.932 75.8502 427.048 74.418C427.163 72.9859 428.281 71.9072 429.545 72.0088ZM868.961 23.5857C866.935 28.25 863.311 31.9911 858.887 33.9862C854.463 35.9811 849.601 36.0665 845.372 34.2236C841.143 32.3806 837.891 28.7602 836.334 24.1589C834.777 19.5576 835.04 14.3522 837.067 9.68792C837.067 9.68792 844.508 17.5059 853.014 16.6368C861.521 15.7678 868.961 23.5857 868.961 23.5857ZM869.1 37.8682C867.432 39.3638 865.661 40.6098 863.872 41.5326C862.837 41.917 861.938 42.3085 861.104 42.6717L861.104 42.6718C856.732 44.5756 854.151 45.6993 843.172 40.915C831.716 35.9232 830.933 33.737 829.027 28.4139L829.027 28.4139L829.027 28.4137C828.758 27.6618 828.466 26.8472 828.119 25.9533C825.313 18.7313 827.264 13.5413 830.044 7.14404L834.6 9.12945C830.641 18.2417 832.655 24.3261 832.655 24.3261C832.655 24.3261 833.643 31.6662 845.034 36.6297C856.425 41.5932 861.772 37.0134 861.772 37.0134C861.772 37.0134 868.515 32.1954 871.776 24.6911L876.552 26.7722C877.221 26.847 877.885 27.0028 878.528 27.2388C880.149 27.8336 881.551 28.9062 882.525 30.2973C883.499 31.6885 883.994 33.324 883.935 34.9611C883.877 36.5982 883.269 38.1496 882.201 39.3849C881.133 40.6203 879.663 41.4737 878.008 41.8185C876.353 42.1633 874.603 41.9812 873.016 41.2992C871.429 40.6171 870.09 39.4713 869.199 38.0322C869.165 37.9779 869.132 37.9232 869.1 37.8682ZM875.013 30.7343C875.739 30.5843 876.505 30.6425 877.219 30.9044C878.005 31.1928 878.685 31.7128 879.157 32.3874C879.629 33.0619 879.869 33.8549 879.841 34.6487C879.813 35.4425 879.518 36.1947 879 36.7937C878.482 37.3926 877.769 37.8064 876.967 37.9736C876.165 38.1409 875.316 38.0525 874.546 37.7218C873.777 37.3911 873.128 36.8356 872.696 36.1378C872.418 35.6889 872.239 35.1965 872.167 34.6924C873.201 33.4611 874.159 32.1337 875.013 30.7343ZM820.955 35.059L862.543 53.1811C863.326 53.5223 863.648 54.5188 863.262 55.4069C862.876 56.295 861.929 56.7384 861.146 56.3972L819.557 38.2751C818.774 37.9339 818.452 36.9373 818.838 36.0492C819.224 35.1611 820.172 34.7178 820.955 35.059ZM667.953 199.822C668.91 203.385 668.543 207.145 666.934 210.275C665.324 213.406 662.603 215.65 659.371 216.515C656.138 217.379 652.657 216.793 649.695 214.885C646.733 212.977 644.531 209.904 643.575 206.341C643.575 206.341 651.329 207.417 655.764 203.082C660.199 198.746 667.953 199.822 667.953 199.822ZM674.483 207.865C674.212 209.467 673.77 210.975 673.172 212.306C672.758 212.992 672.424 213.62 672.115 214.203C670.494 217.259 669.537 219.062 661.144 221.306C652.388 223.648 650.956 222.76 647.47 220.6C646.978 220.295 646.444 219.965 645.843 219.614C640.989 216.783 639.752 212.956 638.44 208.07L641.922 207.138C643.791 214.099 647.683 216.642 647.683 216.642C647.683 216.642 651.559 220.361 660.266 218.033C668.972 215.705 669.938 210.69 669.938 210.69C669.938 210.69 671.589 204.91 670.05 199.178L673.701 198.202C674.114 197.942 674.561 197.731 675.033 197.574C676.222 197.179 677.501 197.155 678.683 197.505C679.864 197.854 680.883 198.559 681.59 199.514C682.296 200.47 682.652 201.625 682.604 202.808C682.556 203.992 682.107 205.14 681.323 206.083C680.54 207.027 679.464 207.714 678.255 208.044C677.047 208.373 675.77 208.328 674.614 207.914C674.57 207.898 674.527 207.882 674.483 207.865ZM674.617 201.146C674.961 200.733 675.422 200.419 675.946 200.246C676.522 200.054 677.143 200.042 677.715 200.212C678.288 200.381 678.782 200.723 679.125 201.186C679.467 201.65 679.64 202.21 679.617 202.784C679.593 203.357 679.376 203.914 678.996 204.372C678.616 204.829 678.094 205.162 677.508 205.322C676.922 205.482 676.303 205.46 675.742 205.259C675.382 205.13 675.058 204.931 674.789 204.677C674.82 203.512 674.764 202.326 674.617 201.146ZM645.89 228.018L677.679 219.517C678.277 219.357 678.91 219.778 679.092 220.456C679.275 221.134 678.937 221.814 678.339 221.974L646.55 230.475C645.951 230.635 645.319 230.214 645.136 229.536C644.954 228.858 645.292 228.178 645.89 228.018ZM255.513 226.776C257.254 233.26 256.586 240.103 253.657 245.8C250.728 251.498 245.777 255.582 239.893 257.155C234.01 258.729 227.676 257.662 222.284 254.19C216.893 250.717 212.886 245.124 211.146 238.64C211.146 238.64 225.258 240.598 233.329 232.708C241.401 224.818 255.513 226.776 255.513 226.776ZM267.397 241.414C266.904 244.33 266.099 247.073 265.01 249.496C264.257 250.744 263.65 251.888 263.087 252.949L263.087 252.949C260.136 258.509 258.395 261.791 243.121 265.876C227.185 270.137 224.58 268.522 218.235 264.591L218.235 264.591C217.339 264.036 216.368 263.434 215.274 262.796C206.439 257.644 204.188 250.679 201.8 241.786L208.138 240.091C211.539 252.758 218.622 257.386 218.622 257.386C218.622 257.386 225.676 264.156 241.522 259.919C257.367 255.681 259.125 246.555 259.125 246.555C259.125 246.555 262.13 236.036 259.329 225.604L265.973 223.827C266.725 223.355 267.539 222.97 268.397 222.685C270.561 221.967 272.89 221.922 275.04 222.558C277.189 223.194 279.045 224.477 280.33 226.216C281.616 227.955 282.263 230.057 282.175 232.211C282.088 234.365 281.271 236.455 279.845 238.171C278.42 239.888 276.462 241.139 274.262 241.739C272.062 242.339 269.738 242.256 267.634 241.502C267.555 241.474 267.476 241.444 267.397 241.414ZM267.64 229.185C268.266 228.433 269.106 227.863 270.059 227.547C271.107 227.199 272.237 227.177 273.279 227.486C274.322 227.794 275.221 228.416 275.845 229.259C276.468 230.102 276.782 231.122 276.739 232.166C276.697 233.21 276.301 234.224 275.609 235.056C274.918 235.888 273.969 236.495 272.902 236.786C271.836 237.077 270.709 237.036 269.689 236.671C269.032 236.436 268.443 236.074 267.954 235.613C268.01 233.491 267.908 231.333 267.64 229.185ZM215.36 278.091L273.213 262.62C274.302 262.329 275.454 263.094 275.785 264.328C276.117 265.563 275.503 266.8 274.413 267.091L216.56 282.562C215.471 282.853 214.319 282.088 213.988 280.854C213.656 279.619 214.271 278.382 215.36 278.091ZM85.7372 410.951C84.9648 417.619 81.8204 423.736 76.9958 427.958C72.1711 432.179 66.0613 434.159 60.0106 433.461C53.9599 432.763 48.4637 429.444 44.7313 424.236C40.9989 419.027 39.336 412.355 40.1083 405.687C40.1083 405.687 52.5081 412.69 62.9228 408.319C73.3374 403.947 85.7372 410.951 85.7372 410.951ZM91.3894 428.926C89.8555 431.456 88.0953 433.711 86.189 435.564C85.0284 436.448 84.0423 437.289 83.1278 438.068L83.1277 438.068C78.3336 442.155 75.5041 444.567 59.7964 442.755C43.4075 440.864 41.5802 438.405 37.1308 432.42C36.5022 431.574 35.8212 430.658 35.0395 429.664C28.7246 421.628 29.1995 414.325 30.2588 405.179L36.7772 405.931C35.2683 418.958 40.1473 425.863 40.1473 425.863C40.1473 425.863 44.21 434.748 60.506 436.628C76.8021 438.508 81.8019 430.668 81.8019 430.668C81.8019 430.668 88.4748 421.99 89.7174 411.262L96.5499 412.05C97.4237 411.887 98.3225 411.828 99.2256 411.879C101.502 412.005 103.684 412.82 105.449 414.201C107.213 415.582 108.465 417.456 109.019 419.545C109.573 421.634 109.399 423.826 108.524 425.797C107.649 427.767 106.118 429.411 104.16 430.483C102.201 431.555 99.9191 431.999 97.6525 431.749C95.3858 431.499 93.2552 430.568 91.5772 429.095C91.5138 429.039 91.4512 428.983 91.3894 428.926ZM96.125 417.644C96.9841 417.176 97.9754 416.954 98.9775 417.01C100.081 417.071 101.139 417.466 101.995 418.136C102.85 418.805 103.457 419.714 103.726 420.727C103.995 421.74 103.91 422.803 103.486 423.758C103.061 424.714 102.319 425.51 101.37 426.03C100.42 426.55 99.3137 426.766 98.2147 426.644C97.1156 426.523 96.0826 426.072 95.2689 425.357C94.7455 424.898 94.3308 424.345 94.0466 423.736C94.8803 421.784 95.5819 419.74 96.125 417.644ZM29.4788 443.916L88.9766 450.78C90.0968 450.909 90.8857 452.043 90.7387 453.313C90.5916 454.583 89.5643 455.507 88.4441 455.378L28.9462 448.514C27.826 448.385 27.0371 447.251 27.1842 445.981C27.3312 444.711 28.3586 443.787 29.4788 443.916ZM920.219 250.04C917.885 254.731 913.955 258.391 909.294 260.217C904.634 262.042 899.624 261.882 895.367 259.772C891.111 257.662 887.956 253.775 886.596 248.966C885.237 244.157 885.785 238.82 888.12 234.129C888.12 234.129 895.365 242.544 904.169 242.084C912.974 241.625 920.219 250.04 920.219 250.04ZM919.604 264.727C917.807 266.18 915.917 267.37 914.027 268.227C912.94 268.57 911.994 268.926 911.116 269.257H911.116C906.513 270.991 903.797 272.015 892.747 266.538C881.217 260.823 880.527 258.536 878.848 252.967V252.967L878.847 252.967C878.61 252.181 878.353 251.328 878.043 250.392C875.538 242.826 877.822 237.59 881.024 231.156L885.609 233.429C881.049 242.594 882.8 248.95 882.8 248.95C882.8 248.95 883.427 256.546 894.891 262.228C906.355 267.91 912.104 263.475 912.104 263.475C912.104 263.475 919.303 258.866 923.059 251.319L927.865 253.702C928.55 253.813 929.225 254.007 929.875 254.282C931.512 254.976 932.898 256.15 933.828 257.629C934.757 259.109 935.179 260.815 935.032 262.495C934.885 264.175 934.176 265.738 933.011 266.954C931.846 268.169 930.287 268.971 928.565 269.242C926.843 269.512 925.05 269.235 923.453 268.453C921.855 267.671 920.538 266.425 919.697 264.901C919.665 264.843 919.634 264.785 919.604 264.727ZM926.07 257.696C926.825 257.579 927.612 257.678 928.333 257.983C929.127 258.32 929.799 258.889 930.249 259.606C930.7 260.323 930.904 261.151 930.833 261.965C930.762 262.78 930.418 263.538 929.853 264.127C929.288 264.716 928.532 265.105 927.698 265.236C926.863 265.367 925.993 265.233 925.219 264.854C924.444 264.475 923.805 263.871 923.398 263.132C923.135 262.656 922.977 262.141 922.93 261.619C924.059 260.406 925.116 259.091 926.07 257.696ZM870.183 259.386L912.04 280.133C912.828 280.523 913.106 281.564 912.662 282.457C912.217 283.351 911.218 283.758 910.43 283.367L868.573 262.621C867.785 262.23 867.507 261.189 867.951 260.296C868.396 259.403 869.395 258.996 870.183 259.386ZM685.863 419.219C684.48 426.781 680.427 433.537 674.597 438C668.767 442.463 661.637 444.268 654.775 443.018C647.914 441.768 641.882 437.565 638.008 431.334C634.135 425.103 632.735 417.354 634.118 409.792C634.118 409.792 647.762 418.723 659.991 414.506C672.22 410.289 685.863 419.219 685.863 419.219ZM690.972 440.182C689.03 442.959 686.849 445.404 684.531 447.379C683.139 448.302 681.949 449.189 680.845 450.011L680.845 450.011C675.06 454.322 671.646 456.867 653.833 453.622C635.247 450.236 633.344 447.29 628.709 440.118L628.709 440.117C628.054 439.104 627.345 438.007 626.526 436.811C619.914 427.157 621.004 418.847 622.902 408.476L630.294 409.823C627.591 424.596 632.648 432.851 632.648 432.851C632.648 432.851 636.624 443.308 655.104 446.674C673.584 450.041 679.886 441.456 679.886 441.456C679.886 441.456 688.162 432.039 690.388 419.873L698.136 421.285C699.147 421.164 700.178 421.163 701.207 421.288C703.798 421.603 706.231 422.697 708.143 424.407C710.056 426.117 711.346 428.352 711.822 430.781C712.298 433.209 711.935 435.702 710.787 437.888C709.639 440.074 707.766 441.837 705.448 442.916C703.129 443.995 700.488 444.332 697.917 443.877C695.346 443.422 692.981 442.199 691.174 440.389C691.106 440.321 691.039 440.252 690.972 440.182ZM697.231 427.645C698.247 427.174 699.397 426.994 700.538 427.133C701.794 427.286 702.974 427.816 703.901 428.645C704.828 429.474 705.454 430.558 705.685 431.736C705.916 432.913 705.74 434.122 705.183 435.182C704.626 436.242 703.718 437.097 702.594 437.62C701.47 438.143 700.189 438.306 698.943 438.086C697.696 437.865 696.549 437.272 695.673 436.395C695.11 435.83 694.677 435.168 694.398 434.451C695.497 432.282 696.453 429.999 697.231 427.645ZM619.102 452.682L686.574 464.974C687.845 465.206 688.661 466.561 688.398 468C688.134 469.44 686.891 470.42 685.621 470.188L618.148 457.896C616.878 457.665 616.062 456.31 616.325 454.87C616.588 453.43 617.832 452.451 619.102 452.682ZM56.4489 72.8363C55.6766 79.5044 52.5322 85.6221 47.7075 89.8437C42.8829 94.0651 36.773 96.0446 30.7223 95.3466C24.6716 94.6486 19.1754 91.3302 15.443 86.1216C11.7107 80.9128 10.0477 74.2405 10.8201 67.5724C10.8201 67.5724 23.2199 74.5763 33.6345 70.2043C44.0492 65.8324 56.4489 72.8363 56.4489 72.8363ZM62.1011 90.8119C60.5673 93.3419 58.807 95.5966 56.9007 97.4502C55.7401 98.3339 54.754 99.1744 53.8395 99.954L53.8395 99.954C49.0454 104.041 46.2159 106.452 30.5082 104.64C14.1193 102.75 12.2919 100.291 7.8425 94.3057C7.21391 93.4601 6.53299 92.5441 5.75128 91.5494C-0.563649 83.5133 -0.088743 76.2107 0.970575 67.0652L7.48898 67.8172C5.98008 80.8442 10.8591 87.7489 10.8591 87.7489C10.8591 87.7489 14.9218 96.6341 31.2178 98.5141C47.5138 100.394 52.5137 92.5543 52.5137 92.5543C52.5137 92.5543 59.1865 83.8762 60.4291 73.148L67.2617 73.9362C68.1354 73.7732 69.0343 73.7141 69.9374 73.7644C72.2138 73.8911 74.3961 74.7054 76.1603 76.0865C77.9247 77.4675 79.1767 79.3417 79.7307 81.4307C80.2847 83.5197 80.1112 85.7122 79.2357 87.6826C78.3603 89.653 76.8297 91.2965 74.8713 92.3688C72.9128 93.4411 70.6308 93.8852 68.3642 93.6352C66.0976 93.3852 63.967 92.4542 62.2889 90.9808C62.2256 90.9251 62.163 90.8688 62.1011 90.8119ZM66.8367 79.5301C67.6959 79.0614 68.6871 78.8397 69.6892 78.8955C70.793 78.9569 71.851 79.3517 72.7065 80.0214C73.562 80.691 74.1691 81.5997 74.4377 82.6126C74.7063 83.6255 74.6221 84.6885 74.1977 85.644C73.7731 86.5994 73.031 87.3962 72.0815 87.9161C71.1319 88.4361 70.0254 88.6514 68.9264 88.5302C67.8273 88.409 66.7943 87.9576 65.9807 87.2432C65.4572 86.7836 65.0425 86.2309 64.7584 85.6223C65.5921 83.6701 66.2936 81.6256 66.8367 79.5301ZM0.190543 105.802L59.6884 112.666C60.8086 112.795 61.5975 113.929 61.4504 115.199C61.3033 116.468 60.276 117.393 59.1558 117.264L-0.342012 110.4C-1.46223 110.271 -2.25113 109.136 -2.10407 107.867C-1.95701 106.597 -0.929675 105.673 0.190543 105.802Z" fill="#2F2105"/>
</g>
</svg>
