<svg width="1440" height="495" viewBox="0 0 1440 495" fill="none" xmlns="http://www.w3.org/2000/svg">
<rect x="2.12183" y="0.84613" width="1441" height="494.154" fill="#F7EBDA"/>
<g style="mix-blend-mode:overlay">
<path fill-rule="evenodd" clip-rule="evenodd" d="M1052.58 35.3352C1051.98 43.0147 1048.68 50.1572 1043.43 55.1915C1038.17 60.2257 1031.39 62.7392 1024.56 62.1792C1017.73 61.6191 1011.43 58.0313 1007.03 52.2051C1002.64 46.3787 1000.51 38.7913 1001.11 31.1118C1001.11 31.1118 1015.32 38.6526 1026.85 33.2235C1038.38 27.7944 1052.58 35.3352 1052.58 35.3352ZM1059.64 55.7296C1058.01 58.6927 1056.12 61.3491 1054.05 63.551C1052.78 64.6108 1051.71 65.614 1050.71 66.5445L1050.71 66.5449L1050.71 66.5449C1045.49 71.4231 1042.4 74.3022 1024.68 72.8482C1006.2 71.3313 1004.05 68.5841 998.814 61.8952L998.814 61.8951C998.074 60.9501 997.274 59.9265 996.357 58.8166C988.947 49.8499 989.195 41.4544 990.028 30.9217L997.381 31.525C996.195 46.5279 1001.95 54.254 1001.95 54.254C1001.95 54.254 1006.86 64.2844 1025.24 65.7928C1043.62 67.3012 1048.93 58.1096 1048.93 58.1096C1048.93 58.1096 1056.09 47.8898 1057.07 35.5345L1064.77 36.1669C1065.75 35.9451 1066.76 35.8416 1067.77 35.8634C1070.34 35.9182 1072.82 36.7655 1074.86 38.2795C1076.89 39.7935 1078.37 41.8934 1079.08 44.2676C1079.78 46.6418 1079.67 49.1637 1078.77 51.4587C1077.86 53.7538 1076.2 55.6998 1074.04 57.0077C1071.89 58.3155 1069.34 58.9158 1066.78 58.7192C1064.23 58.5225 1061.8 57.5393 1059.85 55.9159C1059.78 55.8546 1059.71 55.7925 1059.64 55.7296ZM1064.52 42.6003C1065.46 42.0286 1066.57 41.7348 1067.7 41.7589C1068.94 41.7855 1070.14 42.1963 1071.13 42.9304C1072.12 43.6645 1072.83 44.6827 1073.18 45.8339C1073.52 46.9851 1073.46 48.2078 1073.03 49.3206C1072.59 50.4334 1071.78 51.377 1070.74 52.0111C1069.69 52.6454 1068.46 52.9363 1067.22 52.841C1065.98 52.7457 1064.8 52.269 1063.86 51.4818C1063.25 50.9755 1062.76 50.358 1062.42 49.6711C1063.28 47.3986 1063.99 45.0256 1064.52 42.6003ZM990.666 75.3865L1057.78 80.8936C1059.04 80.9973 1059.97 82.2667 1059.86 83.7289C1059.74 85.1912 1058.63 86.2925 1057.36 86.1888L990.248 80.6816C988.984 80.5779 988.054 79.3085 988.169 77.8463C988.285 76.3841 989.403 75.2828 990.666 75.3865ZM1054.81 275.423C1054.08 280.001 1051.78 284.128 1048.39 286.895C1045 289.661 1040.81 290.842 1036.74 290.176C1032.67 289.511 1029.06 287.054 1026.69 283.346C1024.32 279.638 1023.4 274.982 1024.12 270.404C1024.12 270.404 1032.29 275.614 1039.46 272.913C1046.63 270.212 1054.81 275.423 1054.81 275.423ZM1058.09 288C1056.98 289.699 1055.72 291.202 1054.38 292.423C1053.56 292.998 1052.87 293.548 1052.23 294.058L1052.23 294.058C1048.87 296.733 1046.88 298.312 1036.32 296.584C1025.3 294.781 1024.14 293.029 1021.31 288.763C1020.91 288.16 1020.48 287.508 1019.98 286.797C1015.95 281.059 1016.49 276.034 1017.48 269.755L1021.86 270.472C1020.45 279.416 1023.54 284.33 1023.54 284.33C1023.54 284.33 1026.02 290.585 1036.98 292.377C1047.94 294.17 1051.56 288.911 1051.56 288.911C1051.56 288.911 1056.33 283.125 1057.49 275.759L1062.08 276.51C1062.68 276.424 1063.29 276.411 1063.9 276.473C1065.43 276.629 1066.88 277.258 1068.03 278.264C1069.18 279.271 1069.97 280.603 1070.29 282.061C1070.6 283.52 1070.42 285.028 1069.76 286.361C1069.11 287.694 1068.03 288.782 1066.67 289.462C1065.32 290.143 1063.76 290.38 1062.24 290.139C1060.71 289.897 1059.3 289.19 1058.21 288.122C1058.17 288.082 1058.13 288.041 1058.09 288ZM1061.63 280.358C1062.22 280.06 1062.9 279.938 1063.57 280.006C1064.32 280.082 1065.02 280.387 1065.58 280.875C1066.14 281.363 1066.52 282.009 1066.67 282.716C1066.82 283.423 1066.74 284.154 1066.42 284.801C1066.1 285.447 1065.58 285.975 1064.92 286.305C1064.26 286.635 1063.51 286.75 1062.77 286.633C1062.03 286.516 1061.35 286.173 1060.82 285.655C1060.48 285.322 1060.21 284.928 1060.04 284.499C1060.66 283.177 1061.2 281.787 1061.63 280.358ZM1015.79 296.465L1055.81 303.009C1056.56 303.132 1057.06 303.939 1056.92 304.811C1056.78 305.682 1056.06 306.289 1055.31 306.166L1015.29 299.622C1014.54 299.498 1014.04 298.692 1014.18 297.82C1014.32 296.948 1015.04 296.341 1015.79 296.465ZM650.565 107.413C651.522 111.051 651.155 114.89 649.546 118.086C647.936 121.282 645.216 123.573 641.983 124.456C638.75 125.339 635.27 124.74 632.307 122.792C629.345 120.844 627.143 117.706 626.187 114.069C626.187 114.069 633.941 115.167 638.376 110.741C642.811 106.315 650.565 107.413 650.565 107.413ZM657.096 115.625C656.825 117.261 656.382 118.8 655.784 120.159C655.37 120.859 655.036 121.501 654.727 122.096C653.106 125.216 652.149 127.057 643.756 129.348C635 131.739 633.568 130.833 630.082 128.627C629.59 128.316 629.056 127.978 628.455 127.62C623.601 124.73 622.364 120.823 621.052 115.834L624.534 114.883C626.403 121.989 630.295 124.586 630.295 124.586C630.295 124.586 634.171 128.383 642.878 126.006C651.584 123.629 652.55 118.509 652.55 118.509C652.55 118.509 654.201 112.608 652.662 106.756L656.313 105.759C656.726 105.494 657.173 105.278 657.645 105.118C658.834 104.715 660.114 104.69 661.295 105.047C662.476 105.404 663.495 106.124 664.202 107.099C664.908 108.075 665.264 109.254 665.216 110.462C665.168 111.67 664.719 112.843 663.935 113.806C663.152 114.769 662.076 115.471 660.867 115.807C659.659 116.144 658.382 116.097 657.226 115.674C657.182 115.658 657.139 115.642 657.096 115.625ZM657.229 108.764C657.573 108.343 658.034 108.023 658.558 107.846C659.134 107.65 659.755 107.638 660.327 107.811C660.9 107.984 661.394 108.333 661.737 108.806C662.079 109.279 662.252 109.851 662.229 110.437C662.205 111.023 661.988 111.591 661.608 112.058C661.228 112.525 660.706 112.865 660.12 113.029C659.534 113.192 658.915 113.169 658.354 112.964C657.994 112.832 657.67 112.629 657.402 112.37C657.432 111.18 657.376 109.969 657.229 108.764ZM628.502 136.201L660.291 127.522C660.89 127.358 661.522 127.787 661.704 128.48C661.887 129.172 661.549 129.866 660.951 130.03L629.162 138.709C628.563 138.872 627.931 138.443 627.748 137.751C627.566 137.058 627.904 136.364 628.502 136.201ZM237.877 184.854C239.618 191.474 238.95 198.461 236.021 204.278C233.091 210.095 228.14 214.265 222.257 215.871C216.374 217.478 210.039 216.388 204.648 212.843C199.257 209.298 195.25 203.588 193.509 196.968C193.509 196.968 207.622 198.967 215.693 190.911C223.765 182.855 237.877 184.854 237.877 184.854ZM249.761 199.799C249.268 202.776 248.463 205.577 247.374 208.051C246.621 209.326 246.014 210.493 245.451 211.576C242.5 217.254 240.759 220.604 225.485 224.774C209.549 229.125 206.944 227.477 200.599 223.463L200.599 223.463C199.703 222.896 198.732 222.282 197.638 221.63C188.803 216.37 186.552 209.259 184.164 200.18L190.502 198.449C193.903 211.382 200.986 216.107 200.986 216.107C200.986 216.107 208.04 223.019 223.886 218.692C239.731 214.366 241.489 205.049 241.489 205.049C241.489 205.049 244.494 194.308 241.693 183.658L248.336 181.844C249.089 181.361 249.903 180.968 250.761 180.677C252.924 179.944 255.254 179.899 257.403 180.548C259.553 181.198 261.409 182.507 262.694 184.283C263.979 186.058 264.627 188.205 264.539 190.403C264.452 192.602 263.635 194.736 262.209 196.489C260.784 198.241 258.826 199.519 256.626 200.131C254.426 200.744 252.102 200.659 249.998 199.889C249.919 199.86 249.84 199.83 249.761 199.799ZM250.004 187.314C250.63 186.547 251.47 185.964 252.422 185.642C253.471 185.286 254.601 185.264 255.643 185.579C256.685 185.894 257.585 186.529 258.208 187.39C258.832 188.25 259.145 189.291 259.103 190.357C259.061 191.424 258.664 192.458 257.973 193.308C257.282 194.158 256.333 194.777 255.266 195.074C254.199 195.371 253.072 195.33 252.052 194.957C251.396 194.717 250.807 194.348 250.318 193.876C250.373 191.711 250.272 189.507 250.004 187.314ZM197.724 237.246L255.577 221.451C256.666 221.153 257.818 221.934 258.149 223.195C258.481 224.455 257.866 225.718 256.777 226.015L198.924 241.81C197.835 242.108 196.683 241.327 196.352 240.067C196.02 238.806 196.634 237.543 197.724 237.246ZM110.737 423.481C109.965 430.289 106.821 436.535 101.996 440.845C97.1712 445.155 91.0614 447.176 85.0106 446.463C78.9599 445.751 73.4637 442.363 69.7314 437.045C65.999 431.727 64.3361 424.914 65.1084 418.106C65.1084 418.106 77.5082 425.257 87.9228 420.794C98.3375 416.33 110.737 423.481 110.737 423.481ZM116.389 441.833C114.856 444.416 113.095 446.719 111.189 448.611C110.028 449.513 109.042 450.371 108.128 451.167C103.334 455.34 100.504 457.802 84.7965 455.952C68.4076 454.022 66.5802 451.512 62.1308 445.401L62.1307 445.4C61.5022 444.537 60.8213 443.602 60.0396 442.586C53.7247 434.382 54.1996 426.926 55.2589 417.589L61.7773 418.356C60.2684 431.657 65.1474 438.706 65.1474 438.706C65.1474 438.706 69.2101 447.778 85.5061 449.697C101.802 451.617 106.802 443.612 106.802 443.612C106.802 443.612 113.475 434.752 114.717 423.799L121.55 424.604C122.424 424.437 123.323 424.377 124.226 424.428C126.502 424.558 128.684 425.389 130.449 426.799C132.213 428.209 133.465 430.123 134.019 432.255C134.573 434.388 134.399 436.627 133.524 438.639C132.649 440.65 131.118 442.328 129.16 443.423C127.201 444.518 124.919 444.971 122.653 444.716C120.386 444.461 118.255 443.51 116.577 442.006C116.514 441.949 116.451 441.892 116.389 441.833ZM121.125 430.315C121.984 429.836 122.975 429.61 123.978 429.667C125.081 429.73 126.139 430.133 126.995 430.817C127.85 431.5 128.457 432.428 128.726 433.462C128.995 434.496 128.91 435.582 128.486 436.557C128.061 437.533 127.319 438.346 126.37 438.877C125.42 439.408 124.314 439.628 123.215 439.504C122.116 439.38 121.083 438.919 120.269 438.19C119.746 437.721 119.331 437.156 119.047 436.535C119.88 434.542 120.582 432.454 121.125 430.315ZM54.4789 457.138L113.977 464.146C115.097 464.278 115.886 465.436 115.739 466.732C115.592 468.028 114.564 468.972 113.444 468.84L53.9463 461.832C52.8261 461.7 52.0372 460.542 52.1843 459.246C52.3313 457.95 53.3587 457.006 54.4789 457.138ZM33.5707 50.707C32.7983 57.515 29.654 63.7611 24.8293 68.0712C20.0046 72.3812 13.8948 74.4022 7.84408 73.6895C1.79337 72.9769 -3.70282 69.5888 -7.4352 64.271C-11.1676 58.9529 -12.8305 52.1407 -12.0581 45.3326C-12.0581 45.3326 0.34162 52.4835 10.7563 48.0198C21.1709 43.5562 33.5707 50.707 33.5707 50.707ZM39.2229 69.0597C37.6891 71.6427 35.9288 73.9448 34.0225 75.8372C32.8619 76.7396 31.8758 77.5977 30.9612 78.3937C26.1671 82.5659 23.3376 85.0283 7.62995 83.1782C-8.75895 81.2479 -10.5863 78.738 -15.0357 72.6269L-15.0358 72.6267C-15.6644 71.7634 -16.3453 70.8282 -17.127 69.8126C-23.4419 61.608 -22.967 54.1522 -21.9077 44.8148L-15.3893 45.5826C-16.8982 58.8829 -12.0192 65.9324 -12.0192 65.9324C-12.0192 65.9324 -7.95647 75.0041 8.33954 76.9235C24.6356 78.8429 29.6354 70.8387 29.6354 70.8387C29.6354 70.8387 36.3083 61.9785 37.5509 51.0252L44.3834 51.83C45.2572 51.6635 46.156 51.6033 47.0592 51.6546C49.3356 51.784 51.5179 52.6153 53.2821 54.0254C55.0465 55.4354 56.2985 57.3489 56.8525 59.4817C57.4065 61.6145 57.2329 63.853 56.3575 65.8648C55.4821 67.8765 53.9515 69.5545 51.9931 70.6493C50.0346 71.744 47.7526 72.1975 45.486 71.9423C43.2193 71.687 41.0887 70.7365 39.4107 69.2321C39.3473 69.1753 39.2847 69.1178 39.2229 69.0597ZM43.9585 57.5412C44.8176 57.0627 45.8089 56.8363 46.811 56.8933C47.9147 56.956 48.9728 57.3591 49.8282 58.0428C50.6837 58.7265 51.2909 59.6543 51.5595 60.6884C51.8281 61.7225 51.7439 62.8079 51.3195 63.7834C50.8949 64.7588 50.1528 65.5724 49.2033 66.1032C48.2536 66.6341 47.1472 66.8539 46.0482 66.7302C44.9491 66.6064 43.916 66.1456 43.1024 65.4161C42.579 64.9469 42.1643 64.3826 41.8801 63.7612C42.7138 61.768 43.4154 59.6807 43.9585 57.5412ZM-22.6877 84.3643L36.8101 91.3722C37.9303 91.5041 38.7192 92.6619 38.5722 93.9582C38.4251 95.2545 37.3978 96.1983 36.2776 96.0664L-23.2202 89.0585C-24.3405 88.9265 -25.1294 87.7687 -24.9823 86.4725C-24.8352 85.1762 -23.8079 84.2323 -22.6877 84.3643ZM977.831 437.073C977.057 441.987 974.58 446.416 970.945 449.385C967.31 452.354 962.814 453.621 958.447 452.907C954.08 452.193 950.199 449.556 947.659 445.576C945.118 441.597 944.126 436.601 944.9 431.687C944.9 431.687 953.67 437.279 961.366 434.38C969.061 431.482 977.831 437.073 977.831 437.073ZM981.355 450.571C980.162 452.395 978.812 454.008 977.37 455.318C976.5 455.935 975.757 456.525 975.069 457.073C971.46 459.943 969.33 461.637 957.994 459.783C946.166 457.849 944.919 455.968 941.883 451.39L941.883 451.39C941.454 450.743 940.989 450.043 940.454 449.28C936.131 443.123 936.709 437.73 937.771 430.991L942.476 431.76C940.963 441.359 944.281 446.632 944.281 446.632C944.281 446.632 946.944 453.345 958.705 455.269C970.466 457.193 974.345 451.549 974.345 451.549C974.345 451.549 979.463 445.339 980.709 437.434L985.64 438.241C986.279 438.148 986.933 438.134 987.586 438.201C989.234 438.369 990.791 439.043 992.026 440.123C993.262 441.204 994.11 442.633 994.445 444.198C994.78 445.763 994.584 447.381 993.885 448.812C993.187 450.243 992.024 451.41 990.569 452.141C989.114 452.871 987.444 453.125 985.808 452.866C984.172 452.607 982.656 451.848 981.486 450.702C981.442 450.659 981.398 450.615 981.355 450.571ZM985.152 442.37C985.791 442.051 986.517 441.919 987.242 441.993C988.041 442.074 988.795 442.401 989.395 442.925C989.994 443.449 990.405 444.142 990.567 444.901C990.73 445.66 990.635 446.444 990.296 447.138C989.957 447.832 989.394 448.398 988.688 448.752C987.983 449.106 987.173 449.229 986.38 449.104C985.586 448.978 984.851 448.61 984.284 448.055C983.919 447.697 983.636 447.274 983.449 446.814C984.117 445.395 984.691 443.904 985.152 442.37ZM935.963 459.655L978.904 466.678C979.713 466.811 980.249 467.676 980.102 468.612C979.954 469.547 979.179 470.199 978.371 470.066L935.43 463.043C934.621 462.911 934.085 462.045 934.233 461.11C934.38 460.174 935.155 459.523 935.963 459.655ZM1449.34 246.942C1447.01 251.732 1443.08 255.469 1438.42 257.333C1433.76 259.196 1428.75 259.033 1424.49 256.879C1420.23 254.725 1417.08 250.756 1415.72 245.846C1414.36 240.937 1414.91 235.488 1417.24 230.698C1417.24 230.698 1424.49 239.29 1433.29 238.82C1442.1 238.351 1449.34 246.942 1449.34 246.942ZM1448.73 261.938C1446.93 263.421 1445.04 264.636 1443.15 265.512C1442.06 265.861 1441.12 266.225 1440.24 266.563C1435.64 268.334 1432.92 269.379 1421.87 263.787C1410.34 257.952 1409.65 255.617 1407.97 249.932L1407.97 249.932C1407.73 249.128 1407.48 248.258 1407.16 247.302C1404.66 239.577 1406.94 234.232 1410.15 227.663L1414.73 229.984C1410.17 239.34 1411.92 245.83 1411.92 245.83C1411.92 245.83 1412.55 253.585 1424.01 259.386C1435.48 265.188 1441.23 260.66 1441.23 260.66C1441.23 260.66 1448.42 255.954 1452.18 248.249L1456.99 250.681C1457.67 250.795 1458.35 250.993 1459 251.274C1460.63 251.982 1462.02 253.181 1462.95 254.691C1463.88 256.202 1464.3 257.944 1464.15 259.659C1464.01 261.374 1463.3 262.971 1462.13 264.212C1460.97 265.452 1459.41 266.272 1457.69 266.547C1455.97 266.823 1454.17 266.541 1452.57 265.742C1450.98 264.944 1449.66 263.672 1448.82 262.115C1448.79 262.057 1448.76 261.998 1448.73 261.938ZM1455.19 254.759C1455.95 254.64 1456.73 254.741 1457.45 255.052C1458.25 255.396 1458.92 255.977 1459.37 256.71C1459.82 257.442 1460.03 258.287 1459.95 259.118C1459.88 259.95 1459.54 260.724 1458.98 261.326C1458.41 261.927 1457.65 262.324 1456.82 262.458C1455.98 262.592 1455.12 262.455 1454.34 262.068C1453.57 261.681 1452.93 261.064 1452.52 260.309C1452.26 259.824 1452.1 259.298 1452.05 258.765C1453.18 257.527 1454.24 256.183 1455.19 254.759ZM1399.3 256.485L1441.16 277.667C1441.95 278.066 1442.23 279.128 1441.78 280.04C1441.34 280.952 1440.34 281.368 1439.55 280.969L1397.7 259.788C1396.91 259.389 1396.63 258.326 1397.07 257.414C1397.52 256.502 1398.52 256.086 1399.3 256.485ZM1293.3 107.342C1294.23 112.605 1293.26 117.994 1290.61 122.322C1287.96 126.65 1283.84 129.564 1279.16 130.422C1274.49 131.28 1269.63 130.012 1265.67 126.897C1261.7 123.782 1258.95 119.076 1258.02 113.813C1258.02 113.813 1268.87 116.305 1275.66 110.577C1282.45 104.85 1293.3 107.342 1293.3 107.342ZM1301.58 119.753C1301.01 122.035 1300.2 124.159 1299.19 126.01C1298.53 126.951 1297.98 127.819 1297.47 128.623L1297.47 128.623L1297.47 128.624C1294.82 132.842 1293.25 135.331 1281.1 137.559C1268.43 139.883 1266.51 138.428 1261.84 134.885C1261.18 134.385 1260.46 133.843 1259.65 133.264C1253.12 128.586 1251.82 122.907 1250.55 115.689L1255.59 114.765C1257.41 125.047 1262.61 129.191 1262.61 129.191C1262.61 129.191 1267.65 135.034 1280.25 132.724C1292.85 130.413 1294.81 123.285 1294.81 123.285C1294.81 123.285 1297.83 115.133 1296.34 106.665L1301.62 105.697C1302.24 105.371 1302.89 105.12 1303.58 104.951C1305.31 104.524 1307.12 104.644 1308.75 105.292C1310.38 105.939 1311.74 107.081 1312.63 108.547C1313.51 110.013 1313.88 111.725 1313.67 113.429C1313.46 115.133 1312.69 116.738 1311.47 118.006C1310.25 119.274 1308.65 120.137 1306.9 120.467C1305.15 120.797 1303.34 120.577 1301.76 119.838C1301.7 119.81 1301.64 119.782 1301.58 119.753ZM1302.57 110.06C1303.1 109.506 1303.79 109.109 1304.55 108.921C1305.39 108.714 1306.27 108.772 1307.06 109.086C1307.85 109.4 1308.51 109.954 1308.94 110.665C1309.37 111.375 1309.55 112.206 1309.45 113.032C1309.35 113.858 1308.97 114.636 1308.38 115.251C1307.79 115.866 1307.01 116.284 1306.16 116.444C1305.31 116.604 1304.44 116.497 1303.67 116.14C1303.18 115.909 1302.74 115.583 1302.39 115.184C1302.57 113.504 1302.64 111.783 1302.57 110.06ZM1258.72 145.411L1304.72 136.974C1305.58 136.815 1306.43 137.499 1306.6 138.501C1306.78 139.503 1306.22 140.444 1305.36 140.603L1259.36 149.04C1258.5 149.199 1257.65 148.516 1257.47 147.513C1257.3 146.511 1257.85 145.57 1258.72 145.411ZM1350.88 424.337C1350.67 429.68 1348.57 434.726 1345.07 438.365C1341.56 442.004 1336.92 443.938 1332.17 443.741C1327.42 443.544 1322.95 441.233 1319.74 437.316C1316.54 433.398 1314.85 428.196 1315.07 422.853C1315.07 422.853 1325.12 427.684 1332.97 423.595C1340.82 419.506 1350.88 424.337 1350.88 424.337ZM1356.32 438.283C1355.28 440.384 1354.04 442.279 1352.66 443.864C1351.81 444.635 1351.09 445.361 1350.42 446.035L1350.42 446.035C1346.93 449.565 1344.87 451.648 1332.54 451.137C1319.68 450.604 1318.12 448.759 1314.3 444.267C1313.77 443.633 1313.18 442.945 1312.52 442.201C1307.14 436.19 1307.08 430.361 1307.37 423.032L1312.49 423.244C1312.07 433.683 1316.27 438.88 1316.27 438.88C1316.27 438.88 1319.95 445.698 1332.74 446.228C1345.53 446.758 1348.96 440.234 1348.96 440.234C1348.96 440.234 1353.65 432.945 1353.99 424.349L1359.36 424.571C1360.03 424.39 1360.72 424.29 1361.43 424.276C1363.21 424.242 1364.95 424.76 1366.41 425.753C1367.86 426.746 1368.94 428.161 1369.49 429.788C1370.05 431.415 1370.04 433.167 1369.47 434.784C1368.91 436.401 1367.81 437.797 1366.35 438.765C1364.89 439.733 1363.14 440.22 1361.36 440.156C1359.58 440.091 1357.87 439.478 1356.48 438.406C1356.43 438.366 1356.37 438.325 1356.32 438.283ZM1359.35 429.04C1359.99 428.617 1360.75 428.382 1361.53 428.367C1362.4 428.351 1363.24 428.602 1363.95 429.083C1364.65 429.565 1365.18 430.251 1365.44 431.04C1365.71 431.828 1365.71 432.678 1365.43 433.462C1365.16 434.246 1364.63 434.923 1363.92 435.392C1363.21 435.862 1362.36 436.098 1361.5 436.067C1360.64 436.036 1359.81 435.738 1359.13 435.219C1358.7 434.884 1358.34 434.47 1358.09 434.003C1358.62 432.403 1359.05 430.737 1359.35 429.04ZM1309.02 453.853L1355.72 455.788C1356.59 455.824 1357.27 456.678 1357.23 457.696C1357.19 458.713 1356.45 459.508 1355.57 459.472L1308.87 457.537C1307.99 457.501 1307.31 456.646 1307.35 455.629C1307.39 454.612 1308.14 453.816 1309.02 453.853ZM642.447 414.703C641.064 422.424 637.011 429.321 631.181 433.878C625.351 438.435 618.221 440.278 611.359 439.001C604.497 437.725 598.466 433.434 594.592 427.072C590.718 420.71 589.319 412.799 590.702 405.079C590.702 405.079 604.345 414.196 616.574 409.891C628.803 405.585 642.447 414.703 642.447 414.703ZM647.556 436.106C645.613 438.941 643.433 441.437 641.115 443.454C639.722 444.396 638.533 445.302 637.429 446.141C631.644 450.543 628.23 453.141 610.417 449.828C591.831 446.371 589.928 443.363 585.293 436.04C584.638 435.006 583.929 433.885 583.11 432.665C576.497 422.807 577.588 414.324 579.485 403.735L586.877 405.11C584.175 420.193 589.232 428.621 589.232 428.621C589.232 428.621 593.207 439.297 611.687 442.734C630.168 446.172 636.47 437.407 636.47 437.407C636.47 437.407 644.746 427.792 646.972 415.371L654.72 416.812C655.73 416.689 656.762 416.688 657.79 416.816C660.382 417.137 662.815 418.254 664.727 420C666.639 421.746 667.929 424.028 668.405 426.507C668.882 428.987 668.519 431.532 667.371 433.764C666.222 435.996 664.35 437.796 662.031 438.898C659.713 439.999 657.072 440.343 654.501 439.878C651.929 439.414 649.565 438.165 647.758 436.318C647.69 436.248 647.622 436.177 647.556 436.106ZM653.814 423.306C654.831 422.825 655.981 422.642 657.121 422.783C658.378 422.939 659.557 423.48 660.485 424.327C661.412 425.174 662.038 426.28 662.268 427.482C662.499 428.685 662.323 429.918 661.767 431.001C661.21 432.083 660.302 432.956 659.178 433.49C658.054 434.024 656.773 434.191 655.526 433.965C654.28 433.74 653.133 433.135 652.257 432.239C651.693 431.663 651.261 430.986 650.982 430.255C652.081 428.041 653.036 425.709 653.814 423.306ZM575.686 448.868L643.158 461.418C644.429 461.655 645.245 463.038 644.981 464.508C644.718 465.978 643.475 466.978 642.204 466.742L574.732 454.192C573.462 453.955 572.645 452.572 572.909 451.102C573.172 449.632 574.415 448.632 575.686 448.868Z" fill="#2F2105"/>
</g>
</svg>
