<svg width="435" height="253" viewBox="0 0 435 253" fill="none" xmlns="http://www.w3.org/2000/svg">
<g style="mix-blend-mode:screen" opacity="0.1">
<path fill-rule="evenodd" clip-rule="evenodd" d="M301.437 14.0592C301.437 50.5579 288.392 85.5616 265.172 111.371C241.952 137.179 210.459 151.678 177.621 151.678C144.783 151.678 113.289 137.179 90.0695 111.371C66.8495 85.5616 53.8046 50.5579 53.8046 14.0592C53.8046 14.0592 124.557 44.1635 177.621 14.0592C230.685 -16.0452 301.437 14.0592 301.437 14.0592ZM342.858 107.631C336.213 122.252 328.185 135.528 319.125 146.728C313.458 152.225 308.698 157.379 304.284 162.16C281.144 187.22 267.486 202.011 182.239 202.011C93.2949 202.011 81.9833 189.871 54.4414 160.313L54.4411 160.313C50.5502 156.137 46.3353 151.614 41.5319 146.728C2.72711 107.257 0.740479 67.5162 0.740479 17.4571H36.1165C36.1165 88.7619 66.5293 123.017 66.5293 123.017C66.5293 123.017 93.799 168.478 182.239 168.478C270.679 168.478 292.593 123.017 292.593 123.017C292.593 123.017 322.947 71.9843 322.947 13.2627H360.027C364.605 11.8375 369.383 10.9585 374.251 10.6673C386.521 9.93317 398.713 12.9718 409.018 19.332C419.324 25.6923 427.192 35.0352 431.455 45.9735C435.717 56.9118 436.148 68.8625 432.682 80.0513C429.216 91.24 422.038 101.071 412.215 108.083C402.391 115.095 390.446 118.916 378.152 118.978C365.858 119.04 353.87 115.339 343.969 108.426C343.595 108.165 343.225 107.9 342.858 107.631ZM361.221 43.7424C365.532 40.6754 370.703 38.8601 376.104 38.5369C382.054 38.181 387.965 39.6543 392.962 42.7382C397.959 45.8221 401.774 50.3521 403.841 55.6558C405.908 60.9595 406.116 66.754 404.436 72.1791C402.755 77.6042 399.275 82.3708 394.512 85.7705C389.749 89.1713 383.957 91.0236 377.996 91.0538C372.034 91.084 366.222 89.2896 361.422 85.9374C358.333 83.7811 355.769 81.0543 353.87 77.9438C357.124 66.8796 359.613 55.3993 361.221 43.7424ZM20.5924 227.177H343.493C349.573 227.177 354.501 232.811 354.501 239.76C354.501 246.71 349.573 252.344 343.493 252.344H20.5924C14.5129 252.344 9.58444 246.71 9.58444 239.76C9.58444 232.811 14.5129 227.177 20.5924 227.177Z" fill="#F9D9AA"/>
</g>
</svg>
