<svg width="183" height="108" viewBox="0 0 183 108" fill="none" xmlns="http://www.w3.org/2000/svg">
<g filter="url(#filter0_d_1_46)">
<g filter="url(#filter1_b_1_46)">
<rect x="16" y="10" width="150.706" height="76" rx="38" fill="url(#paint0_linear_1_46)"/>
</g>
<rect x="24.6118" y="18.9412" width="133.482" height="58.1177" rx="29.0588" fill="white"/>
<path d="M58.2799 52.88V49.568L65.8639 38.72H70.4479V49.328H72.4159V52.88H70.4479V56H66.3439V52.88H58.2799ZM66.6319 43.232L62.5999 49.328H66.6319V43.232ZM77.7141 56.192C76.9941 56.192 76.4021 55.984 75.9381 55.568C75.4901 55.136 75.2661 54.608 75.2661 53.984C75.2661 53.344 75.4901 52.808 75.9381 52.376C76.4021 51.944 76.9941 51.728 77.7141 51.728C78.4181 51.728 78.9941 51.944 79.4421 52.376C79.9061 52.808 80.1381 53.344 80.1381 53.984C80.1381 54.608 79.9061 55.136 79.4421 55.568C78.9941 55.984 78.4181 56.192 77.7141 56.192ZM85.9995 46.592C84.4955 45.792 83.7435 44.536 83.7435 42.824C83.7435 41.96 83.9675 41.176 84.4155 40.472C84.8635 39.752 85.5435 39.184 86.4555 38.768C87.3675 38.336 88.4875 38.12 89.8155 38.12C91.1435 38.12 92.2555 38.336 93.1515 38.768C94.0635 39.184 94.7435 39.752 95.1915 40.472C95.6395 41.176 95.8635 41.96 95.8635 42.824C95.8635 43.688 95.6555 44.44 95.2395 45.08C94.8395 45.72 94.2955 46.224 93.6075 46.592C94.4715 47.008 95.1355 47.584 95.5995 48.32C96.0635 49.04 96.2955 49.888 96.2955 50.864C96.2955 52 96.0075 52.984 95.4315 53.816C94.8555 54.632 94.0715 55.256 93.0795 55.688C92.1035 56.12 91.0155 56.336 89.8155 56.336C88.6155 56.336 87.5195 56.12 86.5275 55.688C85.5515 55.256 84.7755 54.632 84.1995 53.816C83.6235 52.984 83.3355 52 83.3355 50.864C83.3355 49.872 83.5675 49.016 84.0315 48.296C84.4955 47.56 85.1515 46.992 85.9995 46.592ZM91.8795 43.448C91.8795 42.792 91.6875 42.288 91.3035 41.936C90.9355 41.568 90.4395 41.384 89.8155 41.384C89.1915 41.384 88.6875 41.568 88.3035 41.936C87.9355 42.304 87.7515 42.816 87.7515 43.472C87.7515 44.096 87.9435 44.592 88.3275 44.96C88.7115 45.312 89.2075 45.488 89.8155 45.488C90.4235 45.488 90.9195 45.304 91.3035 44.936C91.6875 44.568 91.8795 44.072 91.8795 43.448ZM89.8155 48.368C89.0635 48.368 88.4555 48.576 87.9915 48.992C87.5275 49.392 87.2955 49.952 87.2955 50.672C87.2955 51.344 87.5195 51.896 87.9675 52.328C88.4315 52.76 89.0475 52.976 89.8155 52.976C90.5835 52.976 91.1835 52.76 91.6155 52.328C92.0635 51.896 92.2875 51.344 92.2875 50.672C92.2875 49.968 92.0555 49.408 91.5915 48.992C91.1435 48.576 90.5515 48.368 89.8155 48.368Z" fill="#2F2105"/>
<path d="M115.427 38.633C115.747 37.789 116.958 37.789 117.279 38.633L119.349 44.367C119.421 44.5538 119.548 44.7143 119.714 44.8273C119.879 44.9403 120.075 45.0005 120.275 45H125.362C126.302 45 126.712 46.17 125.973 46.743L122.353 50C122.191 50.1247 122.072 50.2975 122.014 50.4937C121.957 50.6898 121.962 50.8993 122.031 51.092L123.353 56.695C123.675 57.595 122.633 58.368 121.845 57.814L116.928 54.694C116.76 54.5757 116.559 54.5122 116.353 54.5122C116.147 54.5122 115.946 54.5757 115.778 54.694L110.861 57.814C110.074 58.368 109.031 57.594 109.353 56.695L110.675 51.092C110.743 50.8993 110.749 50.6898 110.691 50.4937C110.634 50.2975 110.515 50.1247 110.353 50L106.733 46.743C105.993 46.17 106.405 45 107.343 45H112.43C112.63 45.0007 112.826 44.9405 112.991 44.8275C113.157 44.7144 113.284 44.5539 113.356 44.367L115.426 38.633H115.427Z" fill="#FFD057" stroke="#FFD057" stroke-linecap="round" stroke-linejoin="round"/>
</g>
<defs>
<filter id="filter0_d_1_46" x="0" y="0" width="182.706" height="108" filterUnits="userSpaceOnUse" color-interpolation-filters="sRGB">
<feFlood flood-opacity="0" result="BackgroundImageFix"/>
<feColorMatrix in="SourceAlpha" type="matrix" values="0 0 0 0 0 0 0 0 0 0 0 0 0 0 0 0 0 0 127 0" result="hardAlpha"/>
<feOffset dy="6"/>
<feGaussianBlur stdDeviation="8"/>
<feComposite in2="hardAlpha" operator="out"/>
<feColorMatrix type="matrix" values="0 0 0 0 0 0 0 0 0 0 0 0 0 0 0 0 0 0 0.16 0"/>
<feBlend mode="normal" in2="BackgroundImageFix" result="effect1_dropShadow_1_46"/>
<feBlend mode="normal" in="SourceGraphic" in2="effect1_dropShadow_1_46" result="shape"/>
</filter>
<filter id="filter1_b_1_46" x="12" y="6" width="158.706" height="84" filterUnits="userSpaceOnUse" color-interpolation-filters="sRGB">
<feFlood flood-opacity="0" result="BackgroundImageFix"/>
<feGaussianBlur in="BackgroundImageFix" stdDeviation="2"/>
<feComposite in2="SourceAlpha" operator="in" result="effect1_backgroundBlur_1_46"/>
<feBlend mode="normal" in="SourceGraphic" in2="effect1_backgroundBlur_1_46" result="shape"/>
</filter>
<linearGradient id="paint0_linear_1_46" x1="91.3529" y1="10" x2="91.3529" y2="86" gradientUnits="userSpaceOnUse">
<stop stop-color="white" stop-opacity="0.7"/>
<stop offset="1" stop-color="white" stop-opacity="0.4"/>
</linearGradient>
</defs>
</svg>
